<mxfile host="Electron" modified="2024-04-28T12:06:48.672Z" agent="Mozilla/5.0 (Windows NT 10.0; Win64; x64) AppleWebKit/537.36 (KHTML, like Gecko) draw.io/24.2.5 Chrome/120.0.6099.109 Electron/28.1.0 Safari/537.36" etag="WbGHyB6tZbLD7dVgLolZ" version="24.2.5" type="device">
  <diagram name="Page-1" id="vIMcP5MF39ZWf3nU_W5i">
    <mxGraphModel dx="1295" dy="758" grid="1" gridSize="10" guides="1" tooltips="1" connect="1" arrows="1" fold="1" page="1" pageScale="1" pageWidth="850" pageHeight="1100" math="0" shadow="0">
      <root>
        <mxCell id="0" />
        <mxCell id="1" parent="0" />
        <mxCell id="JXbaKVmhnlNO80Hu4VZx-36" style="edgeStyle=orthogonalEdgeStyle;rounded=0;orthogonalLoop=1;jettySize=auto;html=1;exitX=1;exitY=0.5;exitDx=0;exitDy=0;entryX=0;entryY=0.5;entryDx=0;entryDy=0;" edge="1" parent="1" source="JXbaKVmhnlNO80Hu4VZx-2" target="JXbaKVmhnlNO80Hu4VZx-20">
          <mxGeometry relative="1" as="geometry" />
        </mxCell>
        <mxCell id="JXbaKVmhnlNO80Hu4VZx-46" style="edgeStyle=orthogonalEdgeStyle;rounded=0;orthogonalLoop=1;jettySize=auto;html=1;exitX=1;exitY=1;exitDx=0;exitDy=0;entryX=0.5;entryY=0;entryDx=0;entryDy=0;" edge="1" parent="1" source="JXbaKVmhnlNO80Hu4VZx-2" target="JXbaKVmhnlNO80Hu4VZx-7">
          <mxGeometry relative="1" as="geometry" />
        </mxCell>
        <mxCell id="JXbaKVmhnlNO80Hu4VZx-75" style="edgeStyle=orthogonalEdgeStyle;rounded=0;orthogonalLoop=1;jettySize=auto;html=1;exitX=0.5;exitY=1;exitDx=0;exitDy=0;entryX=0.5;entryY=0;entryDx=0;entryDy=0;" edge="1" parent="1" source="JXbaKVmhnlNO80Hu4VZx-2" target="JXbaKVmhnlNO80Hu4VZx-10">
          <mxGeometry relative="1" as="geometry" />
        </mxCell>
        <mxCell id="JXbaKVmhnlNO80Hu4VZx-76" style="edgeStyle=orthogonalEdgeStyle;rounded=0;orthogonalLoop=1;jettySize=auto;html=1;exitX=0;exitY=1;exitDx=0;exitDy=0;entryX=0;entryY=0.25;entryDx=0;entryDy=0;" edge="1" parent="1" source="JXbaKVmhnlNO80Hu4VZx-2" target="JXbaKVmhnlNO80Hu4VZx-31">
          <mxGeometry relative="1" as="geometry" />
        </mxCell>
        <mxCell id="JXbaKVmhnlNO80Hu4VZx-2" value="" style="html=1;dashed=0;whiteSpace=wrap;" vertex="1" parent="1">
          <mxGeometry x="90" y="70" width="100" height="50" as="geometry" />
        </mxCell>
        <mxCell id="JXbaKVmhnlNO80Hu4VZx-3" value="&amp;nbsp;7.0" style="swimlane;fontStyle=0;childLayout=stackLayout;horizontal=1;startSize=30;horizontalStack=0;resizeParent=1;resizeParentMax=0;resizeLast=0;collapsible=1;marginBottom=0;whiteSpace=wrap;html=1;" vertex="1" parent="1">
          <mxGeometry x="630" y="280" width="90" height="90" as="geometry" />
        </mxCell>
        <mxCell id="JXbaKVmhnlNO80Hu4VZx-4" value="&amp;nbsp; &amp;nbsp; &amp;nbsp;Request&amp;nbsp;" style="text;strokeColor=none;fillColor=none;align=left;verticalAlign=middle;spacingLeft=4;spacingRight=4;overflow=hidden;points=[[0,0.5],[1,0.5]];portConstraint=eastwest;rotatable=0;whiteSpace=wrap;html=1;" vertex="1" parent="JXbaKVmhnlNO80Hu4VZx-3">
          <mxGeometry y="30" width="90" height="30" as="geometry" />
        </mxCell>
        <mxCell id="JXbaKVmhnlNO80Hu4VZx-5" value="&amp;nbsp; &amp;nbsp;Document" style="text;strokeColor=none;fillColor=none;align=left;verticalAlign=middle;spacingLeft=4;spacingRight=4;overflow=hidden;points=[[0,0.5],[1,0.5]];portConstraint=eastwest;rotatable=0;whiteSpace=wrap;html=1;" vertex="1" parent="JXbaKVmhnlNO80Hu4VZx-3">
          <mxGeometry y="60" width="90" height="30" as="geometry" />
        </mxCell>
        <mxCell id="JXbaKVmhnlNO80Hu4VZx-95" style="edgeStyle=orthogonalEdgeStyle;rounded=0;orthogonalLoop=1;jettySize=auto;html=1;exitX=1;exitY=0.25;exitDx=0;exitDy=0;entryX=0.25;entryY=0;entryDx=0;entryDy=0;" edge="1" parent="1" source="JXbaKVmhnlNO80Hu4VZx-7" target="JXbaKVmhnlNO80Hu4VZx-28">
          <mxGeometry relative="1" as="geometry" />
        </mxCell>
        <mxCell id="JXbaKVmhnlNO80Hu4VZx-7" value="&amp;nbsp;1.0" style="swimlane;fontStyle=0;childLayout=stackLayout;horizontal=1;startSize=30;horizontalStack=0;resizeParent=1;resizeParentMax=0;resizeLast=0;collapsible=1;marginBottom=0;whiteSpace=wrap;html=1;" vertex="1" parent="1">
          <mxGeometry x="240" y="160" width="90" height="90" as="geometry" />
        </mxCell>
        <mxCell id="JXbaKVmhnlNO80Hu4VZx-8" value="&amp;nbsp; &amp;nbsp; Document" style="text;strokeColor=none;fillColor=none;align=left;verticalAlign=middle;spacingLeft=4;spacingRight=4;overflow=hidden;points=[[0,0.5],[1,0.5]];portConstraint=eastwest;rotatable=0;whiteSpace=wrap;html=1;" vertex="1" parent="JXbaKVmhnlNO80Hu4VZx-7">
          <mxGeometry y="30" width="90" height="30" as="geometry" />
        </mxCell>
        <mxCell id="JXbaKVmhnlNO80Hu4VZx-9" value="&amp;nbsp; &amp;nbsp; Activity" style="text;strokeColor=none;fillColor=none;align=left;verticalAlign=middle;spacingLeft=4;spacingRight=4;overflow=hidden;points=[[0,0.5],[1,0.5]];portConstraint=eastwest;rotatable=0;whiteSpace=wrap;html=1;" vertex="1" parent="JXbaKVmhnlNO80Hu4VZx-7">
          <mxGeometry y="60" width="90" height="30" as="geometry" />
        </mxCell>
        <mxCell id="JXbaKVmhnlNO80Hu4VZx-10" value="&amp;nbsp;2.0" style="swimlane;fontStyle=0;childLayout=stackLayout;horizontal=1;startSize=30;horizontalStack=0;resizeParent=1;resizeParentMax=0;resizeLast=0;collapsible=1;marginBottom=0;whiteSpace=wrap;html=1;" vertex="1" parent="1">
          <mxGeometry x="95" y="240" width="80" height="70" as="geometry" />
        </mxCell>
        <mxCell id="JXbaKVmhnlNO80Hu4VZx-11" value="&amp;nbsp;Manage&amp;nbsp;&lt;div&gt;Faculty Files&lt;/div&gt;" style="text;strokeColor=none;fillColor=none;align=left;verticalAlign=middle;spacingLeft=4;spacingRight=4;overflow=hidden;points=[[0,0.5],[1,0.5]];portConstraint=eastwest;rotatable=0;whiteSpace=wrap;html=1;" vertex="1" parent="JXbaKVmhnlNO80Hu4VZx-10">
          <mxGeometry y="30" width="80" height="40" as="geometry" />
        </mxCell>
        <mxCell id="JXbaKVmhnlNO80Hu4VZx-13" value="&amp;nbsp;5.0" style="swimlane;fontStyle=0;childLayout=stackLayout;horizontal=1;startSize=30;horizontalStack=0;resizeParent=1;resizeParentMax=0;resizeLast=0;collapsible=1;marginBottom=0;whiteSpace=wrap;html=1;" vertex="1" parent="1">
          <mxGeometry x="310" y="315" width="90" height="90" as="geometry" />
        </mxCell>
        <mxCell id="JXbaKVmhnlNO80Hu4VZx-14" value="&amp;nbsp; &amp;nbsp; Assign&amp;nbsp;" style="text;strokeColor=none;fillColor=none;align=left;verticalAlign=middle;spacingLeft=4;spacingRight=4;overflow=hidden;points=[[0,0.5],[1,0.5]];portConstraint=eastwest;rotatable=0;whiteSpace=wrap;html=1;" vertex="1" parent="JXbaKVmhnlNO80Hu4VZx-13">
          <mxGeometry y="30" width="90" height="30" as="geometry" />
        </mxCell>
        <mxCell id="JXbaKVmhnlNO80Hu4VZx-15" value="&amp;nbsp; Documents" style="text;strokeColor=none;fillColor=none;align=left;verticalAlign=middle;spacingLeft=4;spacingRight=4;overflow=hidden;points=[[0,0.5],[1,0.5]];portConstraint=eastwest;rotatable=0;whiteSpace=wrap;html=1;" vertex="1" parent="JXbaKVmhnlNO80Hu4VZx-13">
          <mxGeometry y="60" width="90" height="30" as="geometry" />
        </mxCell>
        <mxCell id="JXbaKVmhnlNO80Hu4VZx-16" value="&amp;nbsp;4.0" style="swimlane;fontStyle=0;childLayout=stackLayout;horizontal=1;startSize=30;horizontalStack=0;resizeParent=1;resizeParentMax=0;resizeLast=0;collapsible=1;marginBottom=0;whiteSpace=wrap;html=1;" vertex="1" parent="1">
          <mxGeometry x="605" y="60" width="90" height="90" as="geometry" />
        </mxCell>
        <mxCell id="JXbaKVmhnlNO80Hu4VZx-17" value="&amp;nbsp;Manage User&amp;nbsp;" style="text;strokeColor=none;fillColor=none;align=left;verticalAlign=middle;spacingLeft=4;spacingRight=4;overflow=hidden;points=[[0,0.5],[1,0.5]];portConstraint=eastwest;rotatable=0;whiteSpace=wrap;html=1;" vertex="1" parent="JXbaKVmhnlNO80Hu4VZx-16">
          <mxGeometry y="30" width="90" height="30" as="geometry" />
        </mxCell>
        <mxCell id="JXbaKVmhnlNO80Hu4VZx-18" value="&amp;nbsp; &amp;nbsp; &amp;nbsp; &amp;nbsp;Files" style="text;strokeColor=none;fillColor=none;align=left;verticalAlign=middle;spacingLeft=4;spacingRight=4;overflow=hidden;points=[[0,0.5],[1,0.5]];portConstraint=eastwest;rotatable=0;whiteSpace=wrap;html=1;" vertex="1" parent="JXbaKVmhnlNO80Hu4VZx-16">
          <mxGeometry y="60" width="90" height="30" as="geometry" />
        </mxCell>
        <mxCell id="JXbaKVmhnlNO80Hu4VZx-19" value="&amp;nbsp;0" style="swimlane;fontStyle=0;childLayout=stackLayout;horizontal=1;startSize=30;horizontalStack=0;resizeParent=1;resizeParentMax=0;resizeLast=0;collapsible=1;marginBottom=0;whiteSpace=wrap;html=1;" vertex="1" parent="1">
          <mxGeometry x="360" y="60" width="90" height="90" as="geometry" />
        </mxCell>
        <mxCell id="JXbaKVmhnlNO80Hu4VZx-20" value="&amp;nbsp; &amp;nbsp; &amp;nbsp;Manage" style="text;strokeColor=none;fillColor=none;align=left;verticalAlign=middle;spacingLeft=4;spacingRight=4;overflow=hidden;points=[[0,0.5],[1,0.5]];portConstraint=eastwest;rotatable=0;whiteSpace=wrap;html=1;" vertex="1" parent="JXbaKVmhnlNO80Hu4VZx-19">
          <mxGeometry y="30" width="90" height="30" as="geometry" />
        </mxCell>
        <mxCell id="JXbaKVmhnlNO80Hu4VZx-21" value="&amp;nbsp; &amp;nbsp; &amp;nbsp;Account" style="text;strokeColor=none;fillColor=none;align=left;verticalAlign=middle;spacingLeft=4;spacingRight=4;overflow=hidden;points=[[0,0.5],[1,0.5]];portConstraint=eastwest;rotatable=0;whiteSpace=wrap;html=1;" vertex="1" parent="JXbaKVmhnlNO80Hu4VZx-19">
          <mxGeometry y="60" width="90" height="30" as="geometry" />
        </mxCell>
        <mxCell id="JXbaKVmhnlNO80Hu4VZx-102" style="edgeStyle=orthogonalEdgeStyle;rounded=0;orthogonalLoop=1;jettySize=auto;html=1;exitX=0;exitY=0.25;exitDx=0;exitDy=0;" edge="1" parent="1" source="JXbaKVmhnlNO80Hu4VZx-28" target="JXbaKVmhnlNO80Hu4VZx-50">
          <mxGeometry relative="1" as="geometry" />
        </mxCell>
        <mxCell id="JXbaKVmhnlNO80Hu4VZx-28" value="&amp;nbsp;6.0" style="swimlane;fontStyle=0;childLayout=stackLayout;horizontal=1;startSize=30;horizontalStack=0;resizeParent=1;resizeParentMax=0;resizeLast=0;collapsible=1;marginBottom=0;whiteSpace=wrap;html=1;" vertex="1" parent="1">
          <mxGeometry x="460" y="285" width="90" height="80" as="geometry" />
        </mxCell>
        <mxCell id="JXbaKVmhnlNO80Hu4VZx-29" value="Shared Document Logs" style="text;strokeColor=none;fillColor=none;align=left;verticalAlign=middle;spacingLeft=4;spacingRight=4;overflow=hidden;points=[[0,0.5],[1,0.5]];portConstraint=eastwest;rotatable=0;whiteSpace=wrap;html=1;" vertex="1" parent="JXbaKVmhnlNO80Hu4VZx-28">
          <mxGeometry y="30" width="90" height="50" as="geometry" />
        </mxCell>
        <mxCell id="JXbaKVmhnlNO80Hu4VZx-31" value="&amp;nbsp;3.0" style="swimlane;fontStyle=0;childLayout=stackLayout;horizontal=1;startSize=30;horizontalStack=0;resizeParent=1;resizeParentMax=0;resizeLast=0;collapsible=1;marginBottom=0;whiteSpace=wrap;html=1;" vertex="1" parent="1">
          <mxGeometry x="95" y="360" width="90" height="80" as="geometry" />
        </mxCell>
        <mxCell id="JXbaKVmhnlNO80Hu4VZx-32" value="&amp;nbsp;Manage Process Owners Files" style="text;strokeColor=none;fillColor=none;align=left;verticalAlign=middle;spacingLeft=4;spacingRight=4;overflow=hidden;points=[[0,0.5],[1,0.5]];portConstraint=eastwest;rotatable=0;whiteSpace=wrap;html=1;" vertex="1" parent="JXbaKVmhnlNO80Hu4VZx-31">
          <mxGeometry y="30" width="90" height="50" as="geometry" />
        </mxCell>
        <mxCell id="JXbaKVmhnlNO80Hu4VZx-38" style="edgeStyle=orthogonalEdgeStyle;rounded=0;orthogonalLoop=1;jettySize=auto;html=1;exitX=0.5;exitY=0;exitDx=0;exitDy=0;entryX=1;entryY=0.5;entryDx=0;entryDy=0;" edge="1" parent="1" source="JXbaKVmhnlNO80Hu4VZx-34" target="JXbaKVmhnlNO80Hu4VZx-20">
          <mxGeometry relative="1" as="geometry" />
        </mxCell>
        <mxCell id="JXbaKVmhnlNO80Hu4VZx-34" value="" style="html=1;dashed=0;whiteSpace=wrap;shape=mxgraph.dfd.dataStoreID;align=left;spacingLeft=3;points=[[0,0],[0.5,0],[1,0],[0,0.5],[1,0.5],[0,1],[0.5,1],[1,1]];" vertex="1" parent="1">
          <mxGeometry x="420" y="160" width="160" height="20" as="geometry" />
        </mxCell>
        <mxCell id="JXbaKVmhnlNO80Hu4VZx-35" value="" style="html=1;dashed=0;whiteSpace=wrap;shape=mxgraph.dfd.dataStoreID;align=left;spacingLeft=3;points=[[0,0],[0.5,0],[1,0],[0,0.5],[1,0.5],[0,1],[0.5,1],[1,1]];" vertex="1" parent="1">
          <mxGeometry x="420" y="190" width="160" height="20" as="geometry" />
        </mxCell>
        <mxCell id="JXbaKVmhnlNO80Hu4VZx-39" style="edgeStyle=orthogonalEdgeStyle;rounded=0;orthogonalLoop=1;jettySize=auto;html=1;exitX=1;exitY=0.25;exitDx=0;exitDy=0;entryX=0.703;entryY=-0.2;entryDx=0;entryDy=0;entryPerimeter=0;" edge="1" parent="1" source="JXbaKVmhnlNO80Hu4VZx-19" target="JXbaKVmhnlNO80Hu4VZx-34">
          <mxGeometry relative="1" as="geometry" />
        </mxCell>
        <mxCell id="JXbaKVmhnlNO80Hu4VZx-40" style="edgeStyle=orthogonalEdgeStyle;rounded=0;orthogonalLoop=1;jettySize=auto;html=1;exitX=0.5;exitY=1;exitDx=0;exitDy=0;entryX=0.14;entryY=1.01;entryDx=0;entryDy=0;entryPerimeter=0;" edge="1" parent="1" source="JXbaKVmhnlNO80Hu4VZx-35" target="JXbaKVmhnlNO80Hu4VZx-21">
          <mxGeometry relative="1" as="geometry" />
        </mxCell>
        <mxCell id="JXbaKVmhnlNO80Hu4VZx-41" style="edgeStyle=orthogonalEdgeStyle;rounded=0;orthogonalLoop=1;jettySize=auto;html=1;exitX=0.5;exitY=1;exitDx=0;exitDy=0;entryX=0.003;entryY=0.765;entryDx=0;entryDy=0;entryPerimeter=0;" edge="1" parent="1" source="JXbaKVmhnlNO80Hu4VZx-19" target="JXbaKVmhnlNO80Hu4VZx-35">
          <mxGeometry relative="1" as="geometry" />
        </mxCell>
        <mxCell id="JXbaKVmhnlNO80Hu4VZx-43" value="&amp;nbsp;List of Faculty Member" style="text;html=1;align=center;verticalAlign=middle;resizable=0;points=[];autosize=1;strokeColor=none;fillColor=none;" vertex="1" parent="1">
          <mxGeometry x="440" y="155" width="150" height="30" as="geometry" />
        </mxCell>
        <mxCell id="JXbaKVmhnlNO80Hu4VZx-44" value="&amp;nbsp;List of Process Owners" style="text;html=1;align=center;verticalAlign=middle;resizable=0;points=[];autosize=1;strokeColor=none;fillColor=none;" vertex="1" parent="1">
          <mxGeometry x="440" y="185" width="150" height="30" as="geometry" />
        </mxCell>
        <mxCell id="JXbaKVmhnlNO80Hu4VZx-47" value="" style="html=1;dashed=0;whiteSpace=wrap;shape=mxgraph.dfd.dataStoreID;align=left;spacingLeft=3;points=[[0,0],[0.5,0],[1,0],[0,0.5],[1,0.5],[0,1],[0.5,1],[1,1]];" vertex="1" parent="1">
          <mxGeometry x="320" y="260" width="100" height="20" as="geometry" />
        </mxCell>
        <mxCell id="JXbaKVmhnlNO80Hu4VZx-50" value="&amp;nbsp;Document" style="text;html=1;align=center;verticalAlign=middle;resizable=0;points=[];autosize=1;strokeColor=none;fillColor=none;" vertex="1" parent="1">
          <mxGeometry x="345" y="255" width="80" height="30" as="geometry" />
        </mxCell>
        <mxCell id="JXbaKVmhnlNO80Hu4VZx-51" value="" style="html=1;dashed=0;whiteSpace=wrap;shape=mxgraph.dfd.dataStoreID;align=left;spacingLeft=3;points=[[0,0],[0.5,0],[1,0],[0,0.5],[1,0.5],[0,1],[0.5,1],[1,1]];" vertex="1" parent="1">
          <mxGeometry x="140" y="320" width="100" height="20" as="geometry" />
        </mxCell>
        <mxCell id="JXbaKVmhnlNO80Hu4VZx-52" value="&amp;nbsp;Faculty" style="text;html=1;align=center;verticalAlign=middle;resizable=0;points=[];autosize=1;strokeColor=none;fillColor=none;" vertex="1" parent="1">
          <mxGeometry x="160" y="315" width="70" height="30" as="geometry" />
        </mxCell>
        <mxCell id="JXbaKVmhnlNO80Hu4VZx-60" style="edgeStyle=orthogonalEdgeStyle;rounded=0;orthogonalLoop=1;jettySize=auto;html=1;exitX=1;exitY=0.25;exitDx=0;exitDy=0;entryX=0.857;entryY=0.167;entryDx=0;entryDy=0;entryPerimeter=0;" edge="1" parent="1" source="JXbaKVmhnlNO80Hu4VZx-10" target="JXbaKVmhnlNO80Hu4VZx-52">
          <mxGeometry relative="1" as="geometry" />
        </mxCell>
        <mxCell id="JXbaKVmhnlNO80Hu4VZx-62" style="edgeStyle=orthogonalEdgeStyle;rounded=0;orthogonalLoop=1;jettySize=auto;html=1;entryX=0.979;entryY=0.048;entryDx=0;entryDy=0;entryPerimeter=0;exitX=0.5;exitY=0.167;exitDx=0;exitDy=0;exitPerimeter=0;" edge="1" parent="1" source="JXbaKVmhnlNO80Hu4VZx-52" target="JXbaKVmhnlNO80Hu4VZx-11">
          <mxGeometry relative="1" as="geometry">
            <Array as="points">
              <mxPoint x="195" y="272" />
            </Array>
          </mxGeometry>
        </mxCell>
        <mxCell id="JXbaKVmhnlNO80Hu4VZx-64" value="" style="html=1;dashed=0;whiteSpace=wrap;shape=mxgraph.dfd.dataStoreID;align=left;spacingLeft=3;points=[[0,0],[0.5,0],[1,0],[0,0.5],[1,0.5],[0,1],[0.5,1],[1,1]];" vertex="1" parent="1">
          <mxGeometry x="160" y="460" width="130" height="20" as="geometry" />
        </mxCell>
        <mxCell id="JXbaKVmhnlNO80Hu4VZx-66" style="edgeStyle=orthogonalEdgeStyle;rounded=0;orthogonalLoop=1;jettySize=auto;html=1;exitX=1;exitY=0.5;exitDx=0;exitDy=0;entryX=0.698;entryY=-0.031;entryDx=0;entryDy=0;entryPerimeter=0;" edge="1" parent="1" source="JXbaKVmhnlNO80Hu4VZx-32" target="JXbaKVmhnlNO80Hu4VZx-64">
          <mxGeometry relative="1" as="geometry" />
        </mxCell>
        <mxCell id="JXbaKVmhnlNO80Hu4VZx-69" value="&amp;nbsp;Process Owner" style="text;html=1;align=center;verticalAlign=middle;resizable=0;points=[];autosize=1;strokeColor=none;fillColor=none;" vertex="1" parent="1">
          <mxGeometry x="180" y="455" width="110" height="30" as="geometry" />
        </mxCell>
        <mxCell id="JXbaKVmhnlNO80Hu4VZx-71" style="edgeStyle=orthogonalEdgeStyle;rounded=0;orthogonalLoop=1;jettySize=auto;html=1;entryX=1.002;entryY=0.67;entryDx=0;entryDy=0;entryPerimeter=0;" edge="1" parent="1" target="JXbaKVmhnlNO80Hu4VZx-32">
          <mxGeometry relative="1" as="geometry">
            <mxPoint x="235" y="460" as="sourcePoint" />
          </mxGeometry>
        </mxCell>
        <mxCell id="JXbaKVmhnlNO80Hu4VZx-74" style="edgeStyle=orthogonalEdgeStyle;rounded=0;orthogonalLoop=1;jettySize=auto;html=1;exitX=0.75;exitY=0;exitDx=0;exitDy=0;entryX=0.33;entryY=-0.007;entryDx=0;entryDy=0;entryPerimeter=0;" edge="1" parent="1" source="JXbaKVmhnlNO80Hu4VZx-2" target="JXbaKVmhnlNO80Hu4VZx-16">
          <mxGeometry relative="1" as="geometry" />
        </mxCell>
        <mxCell id="JXbaKVmhnlNO80Hu4VZx-77" value="" style="html=1;dashed=0;whiteSpace=wrap;shape=mxgraph.dfd.dataStoreID;align=left;spacingLeft=3;points=[[0,0],[0.5,0],[1,0],[0,0.5],[1,0.5],[0,1],[0.5,1],[1,1]];" vertex="1" parent="1">
          <mxGeometry x="660" y="160" width="100" height="20" as="geometry" />
        </mxCell>
        <mxCell id="JXbaKVmhnlNO80Hu4VZx-78" style="edgeStyle=orthogonalEdgeStyle;rounded=0;orthogonalLoop=1;jettySize=auto;html=1;exitX=1;exitY=0.5;exitDx=0;exitDy=0;entryX=0.863;entryY=-0.079;entryDx=0;entryDy=0;entryPerimeter=0;" edge="1" parent="1" source="JXbaKVmhnlNO80Hu4VZx-17" target="JXbaKVmhnlNO80Hu4VZx-77">
          <mxGeometry relative="1" as="geometry" />
        </mxCell>
        <mxCell id="JXbaKVmhnlNO80Hu4VZx-79" style="edgeStyle=orthogonalEdgeStyle;rounded=0;orthogonalLoop=1;jettySize=auto;html=1;exitX=0.5;exitY=0;exitDx=0;exitDy=0;entryX=1.049;entryY=-0.04;entryDx=0;entryDy=0;entryPerimeter=0;" edge="1" parent="1" source="JXbaKVmhnlNO80Hu4VZx-77" target="JXbaKVmhnlNO80Hu4VZx-18">
          <mxGeometry relative="1" as="geometry" />
        </mxCell>
        <mxCell id="JXbaKVmhnlNO80Hu4VZx-80" value="&amp;nbsp;User" style="text;html=1;align=center;verticalAlign=middle;resizable=0;points=[];autosize=1;strokeColor=none;fillColor=none;" vertex="1" parent="1">
          <mxGeometry x="695" y="155" width="50" height="30" as="geometry" />
        </mxCell>
        <mxCell id="JXbaKVmhnlNO80Hu4VZx-84" style="edgeStyle=orthogonalEdgeStyle;rounded=0;orthogonalLoop=1;jettySize=auto;html=1;exitX=0.5;exitY=0;exitDx=0;exitDy=0;entryX=1;entryY=0.25;entryDx=0;entryDy=0;" edge="1" parent="1" source="JXbaKVmhnlNO80Hu4VZx-81" target="JXbaKVmhnlNO80Hu4VZx-16">
          <mxGeometry relative="1" as="geometry" />
        </mxCell>
        <mxCell id="JXbaKVmhnlNO80Hu4VZx-85" style="edgeStyle=orthogonalEdgeStyle;rounded=0;orthogonalLoop=1;jettySize=auto;html=1;exitX=0;exitY=0.5;exitDx=0;exitDy=0;" edge="1" parent="1" source="JXbaKVmhnlNO80Hu4VZx-81" target="JXbaKVmhnlNO80Hu4VZx-9">
          <mxGeometry relative="1" as="geometry" />
        </mxCell>
        <mxCell id="JXbaKVmhnlNO80Hu4VZx-105" style="edgeStyle=orthogonalEdgeStyle;rounded=0;orthogonalLoop=1;jettySize=auto;html=1;exitX=0;exitY=0.75;exitDx=0;exitDy=0;entryX=0.5;entryY=0;entryDx=0;entryDy=0;" edge="1" parent="1" source="JXbaKVmhnlNO80Hu4VZx-81" target="JXbaKVmhnlNO80Hu4VZx-3">
          <mxGeometry relative="1" as="geometry" />
        </mxCell>
        <mxCell id="JXbaKVmhnlNO80Hu4VZx-81" value="" style="html=1;dashed=0;whiteSpace=wrap;" vertex="1" parent="1">
          <mxGeometry x="730" y="210" width="100" height="50" as="geometry" />
        </mxCell>
        <mxCell id="JXbaKVmhnlNO80Hu4VZx-91" style="edgeStyle=orthogonalEdgeStyle;rounded=0;orthogonalLoop=1;jettySize=auto;html=1;exitX=0;exitY=0.5;exitDx=0;exitDy=0;entryX=0.965;entryY=1.141;entryDx=0;entryDy=0;entryPerimeter=0;" edge="1" parent="1" source="JXbaKVmhnlNO80Hu4VZx-14" target="JXbaKVmhnlNO80Hu4VZx-51">
          <mxGeometry relative="1" as="geometry" />
        </mxCell>
        <mxCell id="JXbaKVmhnlNO80Hu4VZx-92" style="edgeStyle=orthogonalEdgeStyle;rounded=0;orthogonalLoop=1;jettySize=auto;html=1;entryX=-0.028;entryY=0.051;entryDx=0;entryDy=0;entryPerimeter=0;" edge="1" parent="1" source="JXbaKVmhnlNO80Hu4VZx-52" target="JXbaKVmhnlNO80Hu4VZx-15">
          <mxGeometry relative="1" as="geometry" />
        </mxCell>
        <mxCell id="JXbaKVmhnlNO80Hu4VZx-94" style="edgeStyle=orthogonalEdgeStyle;rounded=0;orthogonalLoop=1;jettySize=auto;html=1;exitX=1;exitY=0.5;exitDx=0;exitDy=0;entryX=0.25;entryY=0;entryDx=0;entryDy=0;" edge="1" parent="1" source="JXbaKVmhnlNO80Hu4VZx-11" target="JXbaKVmhnlNO80Hu4VZx-13">
          <mxGeometry relative="1" as="geometry" />
        </mxCell>
        <mxCell id="JXbaKVmhnlNO80Hu4VZx-96" style="edgeStyle=orthogonalEdgeStyle;rounded=0;orthogonalLoop=1;jettySize=auto;html=1;exitX=1;exitY=0.5;exitDx=0;exitDy=0;entryX=0.226;entryY=0.083;entryDx=0;entryDy=0;entryPerimeter=0;" edge="1" parent="1" source="JXbaKVmhnlNO80Hu4VZx-8" target="JXbaKVmhnlNO80Hu4VZx-50">
          <mxGeometry relative="1" as="geometry" />
        </mxCell>
        <mxCell id="JXbaKVmhnlNO80Hu4VZx-98" style="edgeStyle=orthogonalEdgeStyle;rounded=0;orthogonalLoop=1;jettySize=auto;html=1;exitX=0;exitY=0.5;exitDx=0;exitDy=0;entryX=0.69;entryY=1.122;entryDx=0;entryDy=0;entryPerimeter=0;" edge="1" parent="1" source="JXbaKVmhnlNO80Hu4VZx-47" target="JXbaKVmhnlNO80Hu4VZx-9">
          <mxGeometry relative="1" as="geometry" />
        </mxCell>
        <mxCell id="JXbaKVmhnlNO80Hu4VZx-104" style="edgeStyle=orthogonalEdgeStyle;rounded=0;orthogonalLoop=1;jettySize=auto;html=1;entryX=0.049;entryY=0.038;entryDx=0;entryDy=0;entryPerimeter=0;" edge="1" parent="1" source="JXbaKVmhnlNO80Hu4VZx-50" target="JXbaKVmhnlNO80Hu4VZx-29">
          <mxGeometry relative="1" as="geometry">
            <Array as="points">
              <mxPoint x="385" y="317" />
            </Array>
          </mxGeometry>
        </mxCell>
        <mxCell id="JXbaKVmhnlNO80Hu4VZx-106" value="" style="html=1;dashed=0;whiteSpace=wrap;shape=mxgraph.dfd.dataStoreID;align=left;spacingLeft=3;points=[[0,0],[0.5,0],[1,0],[0,0.5],[1,0.5],[0,1],[0.5,1],[1,1]];" vertex="1" parent="1">
          <mxGeometry x="700" y="380" width="100" height="20" as="geometry" />
        </mxCell>
        <mxCell id="JXbaKVmhnlNO80Hu4VZx-107" style="edgeStyle=orthogonalEdgeStyle;rounded=0;orthogonalLoop=1;jettySize=auto;html=1;exitX=1;exitY=0.5;exitDx=0;exitDy=0;entryX=0.829;entryY=-0.183;entryDx=0;entryDy=0;entryPerimeter=0;" edge="1" parent="1" source="JXbaKVmhnlNO80Hu4VZx-4" target="JXbaKVmhnlNO80Hu4VZx-106">
          <mxGeometry relative="1" as="geometry" />
        </mxCell>
        <mxCell id="JXbaKVmhnlNO80Hu4VZx-109" style="edgeStyle=orthogonalEdgeStyle;rounded=0;orthogonalLoop=1;jettySize=auto;html=1;exitX=0.5;exitY=0;exitDx=0;exitDy=0;entryX=1.013;entryY=0.17;entryDx=0;entryDy=0;entryPerimeter=0;" edge="1" parent="1" source="JXbaKVmhnlNO80Hu4VZx-106" target="JXbaKVmhnlNO80Hu4VZx-5">
          <mxGeometry relative="1" as="geometry" />
        </mxCell>
        <mxCell id="JXbaKVmhnlNO80Hu4VZx-110" value="&amp;nbsp;Admin" style="text;html=1;align=center;verticalAlign=middle;resizable=0;points=[];autosize=1;strokeColor=none;fillColor=none;" vertex="1" parent="1">
          <mxGeometry x="730" y="375" width="60" height="30" as="geometry" />
        </mxCell>
        <mxCell id="JXbaKVmhnlNO80Hu4VZx-111" value="" style="html=1;dashed=0;whiteSpace=wrap;" vertex="1" parent="1">
          <mxGeometry x="505" y="455" width="100" height="50" as="geometry" />
        </mxCell>
        <mxCell id="JXbaKVmhnlNO80Hu4VZx-114" style="edgeStyle=orthogonalEdgeStyle;rounded=0;orthogonalLoop=1;jettySize=auto;html=1;exitX=0.5;exitY=0;exitDx=0;exitDy=0;entryX=0.013;entryY=0.198;entryDx=0;entryDy=0;entryPerimeter=0;" edge="1" parent="1" source="JXbaKVmhnlNO80Hu4VZx-111" target="JXbaKVmhnlNO80Hu4VZx-17">
          <mxGeometry relative="1" as="geometry" />
        </mxCell>
        <mxCell id="JXbaKVmhnlNO80Hu4VZx-124" value="&amp;nbsp;Admin" style="text;html=1;align=center;verticalAlign=middle;resizable=0;points=[];autosize=1;strokeColor=none;fillColor=none;" vertex="1" parent="1">
          <mxGeometry x="105" y="80" width="60" height="30" as="geometry" />
        </mxCell>
        <mxCell id="JXbaKVmhnlNO80Hu4VZx-128" style="edgeStyle=orthogonalEdgeStyle;rounded=0;orthogonalLoop=1;jettySize=auto;html=1;entryX=0.333;entryY=0.975;entryDx=0;entryDy=0;entryPerimeter=0;" edge="1" parent="1" source="JXbaKVmhnlNO80Hu4VZx-125" target="JXbaKVmhnlNO80Hu4VZx-9">
          <mxGeometry relative="1" as="geometry">
            <mxPoint x="270" y="260.0000000000001" as="targetPoint" />
            <Array as="points">
              <mxPoint x="271" y="480" />
              <mxPoint x="271" y="260" />
            </Array>
          </mxGeometry>
        </mxCell>
        <mxCell id="JXbaKVmhnlNO80Hu4VZx-125" value="&amp;nbsp;Process Owners" style="text;html=1;align=center;verticalAlign=middle;resizable=0;points=[];autosize=1;strokeColor=none;fillColor=none;" vertex="1" parent="1">
          <mxGeometry x="500" y="465" width="110" height="30" as="geometry" />
        </mxCell>
        <mxCell id="JXbaKVmhnlNO80Hu4VZx-126" value="&amp;nbsp;Faculty" style="text;html=1;align=center;verticalAlign=middle;resizable=0;points=[];autosize=1;strokeColor=none;fillColor=none;" vertex="1" parent="1">
          <mxGeometry x="745" y="220" width="70" height="30" as="geometry" />
        </mxCell>
      </root>
    </mxGraphModel>
  </diagram>
</mxfile>
